<svg width="211" height="54" viewBox="0 0 211 54" fill="none" xmlns="http://www.w3.org/2000/svg">
<path d="M44.2309 16.6905L41.0927 12.8564C40.5899 12.2377 39.8356 11.8815 39.044 11.8815H28.619C28.7726 11.7502 28.9216 11.6143 29.066 11.469C30.8493 9.67383 31.557 7.02559 30.9005 4.56951L30.7748 4.10079L30.4907 4.0258C28.768 3.56177 26.9195 3.67895 25.3225 4.47577C23.7254 5.27259 22.5474 6.61311 21.9142 8.14582C21.7885 7.98645 21.6534 7.83178 21.5044 7.68179C20.1821 6.35063 18.2405 5.82567 16.4339 6.31314L15.9683 6.43969L15.8426 6.90841C15.377 8.67078 15.8473 10.555 17.0765 11.8815H7.05187C6.26033 11.8815 5.50604 12.2377 4.99853 12.8564L1.86031 16.6905C-0.784365 19.92 -0.588808 24.6118 2.31661 27.6069L17.6632 43.4308C18.4081 44.1995 19.5489 44.462 20.536 44.0542C22.2168 43.3558 23.8511 43.3511 25.532 44.0401C25.8579 44.1761 26.2025 44.2417 26.5377 44.2417C27.2361 44.2417 27.9206 43.9605 28.4327 43.4355L43.7793 27.6116C46.6847 24.6165 46.8803 19.9247 44.2356 16.6952L44.2309 16.6905ZM39.5329 15.4719C39.9892 15.0219 40.7295 15.0594 41.1393 15.5515C42.6479 17.3655 43.5092 18.3498 43.9748 19.5028C44.2682 20.2246 43.7327 21.0168 42.9552 21.0168C41.3302 21.0168 38.6157 21.0168 36.5856 21.0168C35.6078 21.0168 35.1236 19.8216 35.822 19.1325L39.5283 15.4719H39.5329ZM37.1676 15.4531L32.6791 19.8872C32.2461 20.3184 31.543 20.3043 31.124 19.8637L26.9055 15.4297C26.2397 14.7313 26.7333 13.5689 27.6971 13.5689H36.404C37.3818 13.5689 37.8707 14.7641 37.1676 15.4531ZM22.2541 14.6375C22.6824 14.1876 23.4041 14.1876 23.8325 14.6375L28.1348 19.1607C28.8006 19.859 28.307 21.0215 27.3432 21.0215H18.7341C17.7702 21.0215 17.2767 19.859 17.9425 19.1607L22.2448 14.6375H22.2541ZM24.6334 7.01621C25.8812 5.76005 27.6645 5.19759 29.3919 5.49757C29.6852 7.23182 29.1312 9.03169 27.8833 10.2879C26.6355 11.544 24.8522 12.1018 23.1248 11.8065C22.8314 10.0722 23.3855 8.27237 24.6334 7.01621ZM17.3605 7.84584C18.4454 7.7146 19.5442 8.08957 20.3218 8.87233C21.104 9.65977 21.4719 10.7659 21.3415 11.8534C20.2613 11.9846 19.1578 11.6096 18.3802 10.8269C17.598 10.0394 17.2301 8.93326 17.3605 7.84584ZM9.68258 13.5689H18.3942C19.358 13.5689 19.8515 14.7313 19.1857 15.4344L14.9673 19.8684C14.5482 20.309 13.8451 20.3231 13.4121 19.8919L8.91897 15.4578C8.22056 14.7688 8.70479 13.5736 9.68723 13.5736L9.68258 13.5689ZM2.10708 19.5169C2.57269 18.3545 3.43407 17.3702 4.94265 15.5609C5.35239 15.0688 6.09271 15.0313 6.54901 15.4812C7.48489 16.4046 9.02606 17.9279 10.2599 19.1466C10.9584 19.8356 10.4741 21.0308 9.49633 21.0308C7.46161 21.0308 4.7471 21.0308 3.12211 21.0308C2.3492 21.0308 1.8184 20.2434 2.10708 19.5216V19.5169ZM20.6105 42.2403C20.3777 42.3153 20.1495 42.3996 19.9167 42.4934C19.5489 42.6434 19.1252 42.5496 18.8505 42.2637L3.50392 26.4398C2.86603 25.7836 2.3911 25.0196 2.08846 24.2087C1.81375 23.4869 2.33989 22.7088 3.10814 22.7088H12.6718C13.1048 22.7088 13.4959 22.9666 13.6729 23.3651L21.2763 40.7498C21.537 41.3497 21.2297 42.0434 20.6105 42.2403ZM22.0399 38.3171L15.8892 24.2556C15.5726 23.5291 16.0987 22.7135 16.8902 22.7135H29.1917C29.9832 22.7135 30.5094 23.5291 30.1928 24.2556L24.042 38.3171C23.6602 39.1936 22.4217 39.1936 22.0399 38.3171ZM43.9935 24.2087C43.6862 25.0196 43.2159 25.7789 42.578 26.4398L27.2315 42.2637C26.9521 42.5543 26.5284 42.6434 26.1559 42.4887C25.9324 42.3949 25.7043 42.3153 25.4808 42.2403C24.8568 42.0434 24.5449 41.3497 24.8056 40.7451L32.4091 23.3604C32.586 22.962 32.9771 22.7042 33.4101 22.7042H42.9738C43.742 22.7042 44.2682 23.4822 43.9935 24.2041V24.2087Z" fill="#000000"/>
<path d="M84.5637 39V35.94H86.2917C86.6997 35.94 86.9037 35.736 86.9037 35.328C86.9037 35.16 86.8557 35.028 86.7597 34.932L82.0797 29.46L74.3757 39H68.2557V35.94H69.7677C70.1997 35.94 70.5597 35.796 70.8477 35.508C71.1597 35.196 71.3157 34.836 71.3157 34.428V19.128C71.3157 18.72 71.1597 18.372 70.8477 18.084C70.5597 17.772 70.1997 17.616 69.7677 17.616H68.2557V14.556H77.4357V17.616H75.9237C75.4917 17.616 75.1197 17.772 74.8077 18.084C74.5197 18.372 74.3757 18.72 74.3757 19.128V32.412C74.3757 32.58 74.4357 32.724 74.5557 32.844C74.6757 32.964 74.8197 33.024 74.9877 33.024C75.1557 33.024 75.3117 32.952 75.4557 32.808L86.9397 18.588C87.0117 18.468 87.0477 18.336 87.0477 18.192C87.0477 18.048 86.9877 17.916 86.8677 17.796C86.7717 17.676 86.6277 17.616 86.4357 17.616H84.6717V14.556H94.2837V17.616H92.4117C91.9317 17.616 91.5237 17.796 91.1877 18.156L84.0237 27.048L91.1877 35.436C91.5237 35.772 91.9197 35.94 92.3757 35.94H95.8317V39H84.5637Z" fill="#000000"/>
<path d="M112.324 39C111.604 38.976 110.932 38.82 110.308 38.532C109.684 38.244 109.132 37.86 108.652 37.38C108.196 36.9 107.836 36.348 107.572 35.724C107.308 35.076 107.176 34.392 107.176 33.672V19.884C107.176 19.164 107.308 18.492 107.572 17.868C107.836 17.244 108.196 16.692 108.652 16.212C109.132 15.708 109.684 15.312 110.308 15.024C110.932 14.736 111.604 14.58 112.324 14.556H124.744C125.488 14.556 126.184 14.7 126.832 14.988C127.48 15.252 128.044 15.624 128.524 16.104C129.028 16.584 129.412 17.148 129.676 17.796C129.964 18.444 130.108 19.14 130.108 19.884V33.672C130.108 34.416 129.964 35.112 129.676 35.76C129.412 36.408 129.028 36.972 128.524 37.452C128.044 37.932 127.48 38.316 126.832 38.604C126.184 38.868 125.488 39 124.744 39H112.324ZM124.744 35.94C125.368 35.94 125.908 35.724 126.364 35.292C126.82 34.836 127.048 34.296 127.048 33.672V19.884C127.048 19.26 126.82 18.732 126.364 18.3C125.908 17.844 125.368 17.616 124.744 17.616H112.396C111.772 17.664 111.256 17.904 110.848 18.336C110.44 18.768 110.236 19.284 110.236 19.884V33.672C110.236 34.296 110.44 34.824 110.848 35.256C111.256 35.664 111.772 35.892 112.396 35.94H124.744Z" fill="#000000"/>
<path d="M165.224 39L149.456 20.532C149.36 20.364 149.192 20.28 148.952 20.28C148.808 20.28 148.676 20.34 148.556 20.46C148.436 20.556 148.376 20.712 148.376 20.928V34.428C148.376 34.836 148.52 35.196 148.808 35.508C149.12 35.796 149.492 35.94 149.924 35.94H151.436V39H142.256V35.94H143.768C144.2 35.94 144.56 35.796 144.848 35.508C145.16 35.196 145.316 34.836 145.316 34.428V19.128C145.316 18.72 145.16 18.372 144.848 18.084C144.56 17.772 144.2 17.616 143.768 17.616H142.256V14.556H148.376L164.144 33.024C164.288 33.192 164.444 33.276 164.612 33.276C164.78 33.276 164.924 33.228 165.044 33.132C165.164 33.012 165.224 32.856 165.224 32.664V19.128C165.224 18.72 165.068 18.372 164.756 18.084C164.468 17.772 164.12 17.616 163.712 17.616H162.164V14.556H171.344V17.616H169.832C169.4 17.616 169.028 17.772 168.716 18.084C168.428 18.372 168.284 18.72 168.284 19.128V34.428C168.284 34.836 168.428 35.196 168.716 35.508C169.028 35.796 169.4 35.94 169.832 35.94H171.344V39H165.224Z" fill="#000000"/>
<path d="M200.312 39H191.168V35.94H192.68C193.088 35.94 193.436 35.796 193.724 35.508C194.036 35.196 194.192 34.836 194.192 34.428V17.616H188.864C188.432 17.616 188.06 17.772 187.748 18.084C187.46 18.372 187.316 18.72 187.316 19.128V20.676H184.256V14.556H207.188V20.676H204.128V19.128C204.128 18.72 203.972 18.372 203.66 18.084C203.372 17.772 203.024 17.616 202.616 17.616H197.252V34.428C197.252 34.836 197.396 35.196 197.684 35.508C197.996 35.796 198.368 35.94 198.8 35.94H200.312V39Z" fill="#000000"/>

</svg>
